<?xml version="1.0" standalone="no"?>
<!DOCTYPE svg PUBLIC "-//W3C//DTD SVG 20010904//EN"
 "http://www.w3.org/TR/2001/REC-SVG-20010904/DTD/svg10.dtd">
<svg version="1.0" xmlns="http://www.w3.org/2000/svg"
 width="500.000000pt" height="500.000000pt" viewBox="0 0 500.000000 500.000000"
 preserveAspectRatio="xMidYMid meet">

<g transform="translate(0.000000,500.000000) scale(0.100000,-0.100000)"
fill="#000000" stroke="none">
<path d="M2152 4327 c-20 -26 -43 -78 -37 -87 3 -6 4 -10 1 -10 -3 0 -13 16
-21 36 -13 31 -17 34 -30 24 -20 -17 -19 -31 2 -23 11 4 14 3 9 -6 -9 -13 15
-40 53 -60 12 -7 20 -15 17 -18 -3 -3 -13 0 -21 7 -13 10 -18 11 -28 1 -9 -10
-8 -15 5 -25 13 -9 14 -16 6 -24 -6 -6 -16 -8 -23 -6 -13 6 -17 -28 -3 -37 5
-3 -5 -6 -21 -6 -17 0 -33 7 -36 15 -5 13 -3 13 12 1 10 -7 5 1 -11 19 -24 26
-32 30 -45 19 -8 -6 -5 2 7 20 26 36 42 49 42 34 0 -6 5 -11 11 -11 8 0 7 5
-2 16 -10 12 -10 17 0 23 10 6 9 10 -4 14 -9 4 -14 3 -11 -1 2 -4 -2 -16 -11
-27 -14 -20 -15 -20 -11 2 2 12 -1 22 -7 21 -5 -1 -9 -10 -7 -21 3 -13 0 -17
-9 -11 -9 5 -10 2 -6 -9 3 -10 2 -17 -3 -17 -14 0 -21 18 -10 25 14 9 12 25
-3 25 -8 0 -14 -7 -15 -15 -1 -8 -3 -22 -4 -30 -1 -11 -9 -13 -30 -10 -19 4
-27 2 -23 -5 3 -5 15 -10 25 -10 13 0 17 -5 14 -15 -4 -8 -1 -16 5 -16 6 -1
16 -3 21 -4 6 -1 15 -3 20 -4 6 0 10 -6 10 -12 0 -6 -7 -8 -16 -5 -11 4 -22
-1 -31 -13 -7 -11 -25 -21 -40 -23 -36 -4 -40 -24 -6 -33 38 -11 42 -12 49
-14 3 0 -4 -14 -16 -31 -14 -19 -19 -37 -15 -50 5 -17 13 -19 51 -16 24 2 47
-1 50 -5 6 -11 -44 -32 -56 -24 -5 3 -11 -3 -14 -12 -3 -10 -15 -24 -27 -31
-18 -11 -24 -11 -41 4 -16 16 -21 16 -28 4 -12 -19 -12 -27 0 -35 6 -3 10 -14
10 -23 0 -15 -2 -15 -10 -2 -5 8 -10 12 -11 8 -1 -5 -3 -12 -4 -18 -1 -5 -3
-15 -4 -21 0 -5 -5 -8 -10 -5 -5 4 -11 0 -14 -6 -3 -10 -7 -10 -21 1 -14 12
-16 12 -10 -3 6 -15 3 -17 -36 -20 -9 -1 -14 -9 -12 -21 3 -19 2 -19 -18 3
-22 23 -45 29 -55 13 -6 -10 14 -61 25 -61 3 0 15 -7 26 -16 10 -8 13 -13 6
-9 -7 4 -25 8 -40 10 -15 2 -34 5 -42 7 -10 2 -14 -3 -12 -16 2 -10 -1 -15 -7
-12 -5 4 -13 -3 -16 -15 -8 -24 44 -116 63 -112 7 2 12 -2 12 -7 0 -12 -60 -6
-89 9 -21 12 -29 3 -12 -14 6 -6 -1 -10 -19 -11 -37 -1 -62 -22 -55 -44 4 -13
-5 -21 -40 -35 -26 -9 -45 -19 -43 -20 2 -2 30 2 63 9 61 12 150 1 143 -18 -2
-5 13 -10 32 -11 37 -1 110 22 110 35 0 5 21 12 48 15 49 8 92 28 92 46 0 6
-4 7 -10 4 -13 -8 -50 -15 -50 -10 0 12 77 35 114 34 42 -1 41 -3 -6 -13 -15
-4 -33 -16 -39 -28 -9 -17 -9 -20 3 -15 8 3 27 -6 42 -20 21 -19 24 -28 16
-38 -16 -19 -5 -23 129 -39 67 -9 127 -18 132 -21 28 -18 361 -35 374 -20 7 8
18 9 33 4 22 -8 31 4 12 16 -24 15 -6 25 45 25 34 0 55 4 55 11 0 6 -6 9 -13
6 -7 -3 -21 1 -32 9 -10 8 -27 14 -37 14 -10 0 -18 5 -18 10 0 6 7 10 15 10
23 0 65 22 59 31 -3 5 -29 9 -57 9 l-52 1 40 15 c22 8 45 16 50 17 6 1 17 13
27 26 15 22 16 22 21 5 4 -18 5 -18 6 -1 2 29 -18 57 -39 57 -19 0 -24 -10
-21 -37 1 -7 -13 -12 -38 -11 -38 0 -38 1 -20 19 11 11 19 28 19 38 0 10 7 21
15 25 8 3 15 12 15 20 0 7 6 13 13 13 6 -1 29 3 50 7 28 6 42 5 50 -4 9 -10 8
-12 -5 -7 -13 4 -18 1 -19 -11 0 -10 -3 -12 -6 -4 -2 6 -12 12 -22 12 -20 0
-61 -27 -61 -41 0 -6 7 -3 16 5 19 19 34 21 34 3 0 -8 12 -24 26 -38 18 -17
24 -32 22 -51 -3 -15 -1 -25 4 -22 4 3 8 0 8 -6 0 -6 5 -8 10 -5 6 3 10 1 10
-5 0 -6 4 -8 10 -5 6 3 7 -1 3 -10 -3 -9 -15 -21 -27 -25 -18 -7 -16 -9 13 -9
34 -1 34 -1 15 -19 -11 -10 -33 -22 -49 -27 -28 -8 -26 -9 25 -16 30 -4 70 -6
88 -4 17 2 32 -1 32 -6 0 -5 8 -9 18 -9 14 0 15 2 2 10 -9 6 -10 10 -3 10 6 0
17 2 25 5 17 7 52 -50 44 -71 -3 -7 -1 -14 4 -14 6 0 10 -7 10 -15 0 -8 -5
-15 -11 -15 -5 0 -8 -4 -4 -9 3 -5 -1 -15 -8 -23 -17 -17 -37 -53 -37 -68 0
-18 20 0 31 28 l11 27 18 -36 c19 -36 50 -69 50 -53 0 5 -9 23 -20 39 -20 31
-26 70 -12 79 9 6 52 -76 52 -99 0 -8 5 -15 11 -15 7 0 8 7 4 18 -4 9 -11 33
-17 52 -5 19 -18 51 -28 71 -11 20 -20 42 -20 49 0 6 -10 26 -22 43 l-22 30
158 -6 c130 -5 165 -10 200 -27 50 -24 70 -26 62 -5 -7 20 33 20 60 0 29 -22
39 -18 13 5 l-24 21 32 -16 c18 -8 42 -15 54 -15 16 0 19 -3 12 -12 -7 -9 -6
-23 2 -41 11 -27 13 -28 28 -12 19 19 22 45 6 45 -6 0 -9 9 -6 20 4 17 -1 22
-25 27 -18 3 -25 9 -18 13 6 4 12 11 12 15 0 17 -26 22 -75 13 -54 -10 -147 4
-176 26 -15 12 -111 17 -111 6 0 -19 -187 -47 -203 -31 -8 8 -7 11 4 11 8 1 3
7 -10 14 -14 8 -32 12 -40 10 -9 -3 -6 1 6 7 18 9 20 15 10 30 -9 14 -7 22 7
38 16 17 16 20 1 23 -11 2 -4 11 24 29 41 27 69 29 149 14 37 -7 43 9 14 41
-10 11 -17 25 -14 32 2 6 -1 12 -7 12 -6 0 -11 5 -11 12 0 6 10 2 23 -10 13
-12 33 -22 45 -22 12 0 47 -9 77 -21 71 -26 175 -123 175 -162 0 -34 10 -58
21 -51 5 3 6 10 3 16 -4 6 -1 14 6 18 9 6 7 13 -8 28 -11 11 -29 33 -39 48
-31 47 -126 110 -197 129 -36 10 -63 22 -60 27 3 4 10 6 15 3 5 -4 14 -3 20 1
7 4 -2 13 -22 22 -24 10 -29 16 -19 20 8 3 31 20 50 39 30 29 32 33 13 33 -12
0 -23 -8 -26 -20 -3 -11 -11 -20 -17 -20 -7 0 -10 7 -7 15 4 8 2 17 -4 20 -5
4 -7 10 -5 14 3 4 -1 8 -9 8 -17 0 -20 -13 -5 -22 6 -3 10 -11 10 -17 0 -6 -7
-5 -17 3 -11 10 -14 10 -9 2 4 -8 1 -13 -9 -13 -12 0 -14 4 -5 19 9 17 7 19
-14 15 -14 -2 -28 1 -32 7 -4 8 -3 9 5 5 14 -9 43 12 36 24 -3 5 -1 11 5 15
15 9 12 22 -6 29 -8 3 -29 -1 -46 -10 -16 -9 -27 -11 -24 -5 4 6 2 11 -4 11
-6 0 -9 4 -5 9 3 5 1 12 -5 16 -5 3 -10 1 -10 -4 0 -6 -5 -11 -11 -11 -5 0 -7
4 -4 10 3 6 -1 7 -10 4 -20 -8 -18 23 3 45 7 7 10 16 7 19 -3 4 -10 1 -14 -6
-5 -9 -11 -5 -21 13 -8 15 -20 23 -27 20 -8 -2 -12 -1 -8 4 9 16 -6 43 -19 32
-12 -10 -51 11 -40 21 3 4 1 9 -5 13 -10 6 -15 -7 -12 -30 1 -5 -8 1 -19 15
l-21 25 18 -40 c10 -22 24 -44 31 -48 12 -8 11 -34 -3 -69 -12 -30 4 -20 21
13 12 25 14 37 5 56 -14 31 -14 34 5 26 14 -5 16 -19 11 -90 -3 -49 -1 -83 5
-83 5 0 6 5 2 12 -4 7 -3 8 4 4 6 -4 9 -13 6 -21 -4 -8 -10 -12 -15 -9 -10 6
-63 -22 -93 -48 -11 -10 -25 -18 -30 -18 -6 0 -5 4 2 9 11 7 11 9 -2 14 -9 4
-16 12 -16 19 0 14 -40 44 -52 40 -5 -1 -9 8 -9 20 -1 19 -3 17 -9 -7 l-8 -30
-2 35 c-2 19 -3 43 -3 53 0 9 -3 17 -8 17 -4 0 -11 16 -15 35 -4 20 -10 32
-17 28 -6 -4 -7 -1 -3 6 5 7 14 10 22 7 8 -3 11 0 8 8 -7 19 22 39 46 31 11
-3 20 -11 20 -16 0 -5 7 -9 15 -9 21 0 31 30 14 41 -10 6 -11 9 -1 9 7 0 15
-7 18 -15 7 -17 24 -20 24 -5 0 17 -63 50 -95 49 -22 0 -39 -11 -65 -41 -34
-40 -34 -40 -17 -70 9 -16 12 -26 5 -22 -15 9 -1 -14 25 -43 18 -21 19 -23 3
-23 -33 0 -88 76 -85 118 1 11 4 7 9 -8 7 -22 8 -23 9 -4 1 12 4 35 7 52 7 33
-9 39 -38 14 -8 -6 -17 -9 -21 -6 -3 3 -13 -6 -23 -20 -23 -37 -28 -26 -9 20
15 37 15 37 -3 20 -18 -16 -22 -16 -68 2 -27 10 -48 24 -46 31 1 7 -2 10 -7 6
-6 -3 -18 6 -27 20 -9 14 -23 25 -31 25 -12 0 -12 -2 1 -16 24 -24 20 -24 -25
-2 -26 12 -39 24 -35 33 3 8 0 15 -6 17 -8 3 -8 10 1 25 12 24 5 53 -13 53
-17 0 -86 -49 -86 -61 0 -6 -4 -8 -9 -4 -6 3 -4 17 5 33 18 35 18 88 0 95 -8
3 -19 0 -24 -6z m58 -177 c0 -5 -5 -10 -11 -10 -5 0 -7 5 -4 10 3 6 8 10 11
10 2 0 4 -4 4 -10z m0 -70 c0 -5 -4 -10 -9 -10 -6 0 -13 5 -16 10 -3 6 1 10 9
10 9 0 16 -4 16 -10z m384 -162 c-5 -7 -9 -16 -9 -20 0 -3 -4 -10 -9 -15 -5
-5 -6 -3 -2 5 4 6 2 12 -3 12 -6 0 -11 5 -11 10 0 6 7 10 15 10 8 0 15 5 15
12 0 6 3 9 6 5 3 -3 2 -12 -2 -19z m19 -33 c-3 -9 -8 -14 -10 -11 -3 3 -2 9 2
15 9 16 15 13 8 -4z m355 6 c8 -4 12 -20 10 -34 -2 -17 6 -34 21 -51 14 -14
20 -26 15 -26 -16 1 -66 74 -53 79 7 2 3 11 -12 22 -16 13 -19 19 -9 19 8 0
21 -4 28 -9z m56 -29 c2 -4 -5 -9 -17 -9 -17 -2 -19 0 -7 7 18 12 18 12 24 2z
m95 -16 c-2 -2 -15 -7 -29 -10 l-25 -7 25 20 c14 11 27 15 29 10 1 -6 1 -12 0
-13z m-1161 -64 c6 -18 -15 -14 -22 4 -4 10 -1 14 6 12 6 -2 14 -10 16 -16z
m625 5 c5 -13 -14 -47 -27 -47 -8 0 -8 45 1 53 10 11 20 8 26 -6z m527 -37
c14 -11 21 -20 17 -20 -5 0 -20 9 -34 20 -14 11 -22 20 -17 20 5 0 20 -9 34
-20z m-1247 -18 c4 10 7 10 14 1 5 -6 27 -12 49 -11 42 0 114 -27 114 -43 0
-5 -12 -7 -27 -4 l-28 5 28 -11 c29 -11 32 -20 17 -48 -7 -14 -20 -17 -58 -15
-28 1 -59 7 -70 13 -30 16 -51 14 -29 -3 9 -7 17 -17 17 -21 0 -5 -9 0 -20 10
-11 10 -17 21 -15 25 5 9 -25 73 -31 67 -3 -2 0 -17 6 -32 11 -29 8 -41 -8
-31 -6 3 -10 22 -10 42 0 42 17 67 35 53 7 -7 13 -5 16 3z m1304 2 c-3 -3 -12
-4 -19 -1 -8 3 -5 6 6 6 11 1 17 -2 13 -5z m-122 -24 c-3 -5 -12 -10 -18 -10
-7 0 -6 4 3 10 19 12 23 12 15 0z m-885 -10 c0 -5 -2 -10 -4 -10 -3 0 -8 5
-11 10 -3 6 -1 10 4 10 6 0 11 -4 11 -10z m680 0 c0 -5 -2 -10 -4 -10 -3 0 -8
5 -11 10 -3 6 -1 10 4 10 6 0 11 -4 11 -10z m246 -44 c0 -13 -3 -22 -5 -20 -2
2 -11 -2 -19 -9 -12 -10 -12 -6 2 21 20 38 24 40 22 8z m-836 4 c24 -15 7 -18
-30 -4 -31 11 -32 13 -10 13 14 0 32 -3 40 -9z m-100 -30 c0 -5 -5 -10 -11
-10 -5 0 -7 5 -4 10 3 6 8 10 11 10 2 0 4 -4 4 -10z m95 -41 c4 -5 12 -6 18
-3 7 4 9 4 5 -1 -4 -4 -2 -15 5 -24 9 -12 4 -11 -18 3 l-30 19 18 -26 c16 -24
16 -26 0 -20 -16 6 -16 -6 1 -48 10 -23 -23 -53 -71 -65 -30 -8 -45 -8 -53 0
-8 8 -13 7 -19 -2 -6 -10 -13 -4 -25 21 -9 19 -16 41 -16 49 0 7 9 -5 20 -27
l19 -40 -6 48 c-6 45 -4 51 23 73 61 52 75 59 85 43 13 -21 11 -35 -3 -21 -15
15 -28 16 -28 2 0 -5 7 -10 15 -10 8 0 15 -7 15 -15 0 -8 -7 -15 -16 -15 -8 0
-13 4 -9 9 10 18 -17 23 -33 7 -14 -13 -14 -20 -4 -36 14 -23 15 -30 5 -29 -5
1 -14 1 -21 0 -21 -2 -3 -21 19 -21 14 0 18 -4 13 -12 -6 -10 -4 -10 8 0 8 7
22 10 29 7 8 -3 20 4 26 15 11 16 10 18 -2 14 -10 -4 -15 0 -15 14 0 29 11 53
20 47 19 -12 2 47 -21 72 l-24 27 32 -23 c18 -12 35 -26 38 -32z m54 7 c-3 -3
-11 5 -18 17 -13 21 -12 21 5 5 10 -10 16 -20 13 -22z m371 24 c0 -5 -5 -10
-11 -10 -5 0 -7 5 -4 10 3 6 8 10 11 10 2 0 4 -4 4 -10z m180 0 c4 0 10 -7 14
-15 6 -16 -9 -11 -44 16 -13 9 -12 10 3 5 10 -3 22 -6 27 -6z m-989 -46 c6 -8
17 -14 25 -14 7 0 15 -4 19 -9 3 -6 -12 -10 -35 -9 -39 0 -60 17 -60 46 0 14
37 3 51 -14z m581 4 c-9 -9 -15 -9 -24 0 -9 9 -7 12 12 12 19 0 21 -3 12 -12z
m330 -5 c17 -20 31 -43 26 -43 -2 0 -16 14 -31 30 -16 17 -25 30 -19 30 5 0
16 -8 24 -17z m-232 -30 c0 -20 -16 -8 -23 17 -4 17 -3 19 9 9 8 -6 14 -18 14
-26z m-246 -7 c-3 -14 -10 -24 -14 -21 -5 3 -3 16 3 29 15 31 20 27 11 -8z
m170 -1 c-4 -8 -8 -15 -10 -15 -2 0 -4 7 -4 15 0 8 4 15 10 15 5 0 7 -7 4 -15z
m-422 -59 c2 -19 0 -32 -4 -30 -8 5 -12 64 -4 64 2 0 6 -15 8 -34z m810 2 c-8
-8 -9 -4 -5 13 4 13 8 18 11 10 2 -7 -1 -18 -6 -23z m-561 -15 c-10 -17 -10
-16 -11 3 0 23 13 41 18 25 2 -6 -1 -18 -7 -28z m-485 -6 c8 -8 -11 -16 -89
-37 -56 -16 -61 -15 -102 4 -88 42 -44 66 91 51 51 -6 97 -14 100 -18z m784
-27 c0 -11 -4 -20 -9 -20 -14 0 -23 18 -16 30 10 17 25 11 25 -10z m743 -37
c73 -9 56 -24 -20 -17 -87 7 -105 13 -78 24 11 5 27 6 35 4 8 -3 36 -8 63 -11z"/>
<path d="M1886 4201 c-3 -4 7 -8 21 -9 15 -1 23 1 19 5 -9 10 -35 13 -40 4z"/>
<path d="M2905 4090 c3 -5 8 -10 11 -10 2 0 4 5 4 10 0 6 -5 10 -11 10 -5 0
-7 -4 -4 -10z"/>
<path d="M2646 4074 c-15 -14 -22 -44 -12 -44 3 0 14 14 26 30 22 31 13 41
-14 14z"/>
<path d="M3037 4033 c-4 -3 -7 -11 -7 -17 0 -6 5 -5 12 2 6 6 9 14 7 17 -3 3
-9 2 -12 -2z"/>
<path d="M2710 3981 c0 -5 5 -13 10 -16 6 -3 10 -2 10 4 0 5 -4 13 -10 16 -5
3 -10 2 -10 -4z"/>
<path d="M3027 3943 c-4 -3 -7 -11 -7 -17 0 -6 5 -5 12 2 6 6 9 14 7 17 -3 3
-9 2 -12 -2z"/>
<path d="M3060 3884 c0 -8 5 -12 10 -9 6 4 8 11 5 16 -9 14 -15 11 -15 -7z"/>
<path d="M2790 3821 c0 -6 5 -13 12 -17 6 -4 8 -3 4 4 -3 5 0 13 6 15 8 3 6 6
-4 6 -10 1 -18 -3 -18 -8z"/>
<path d="M1684 3786 c-7 -20 2 -46 16 -46 13 0 13 47 0 55 -6 3 -13 -1 -16 -9z"/>
<path d="M3253 3727 c-3 -4 -12 -7 -21 -5 -10 1 -17 -2 -17 -7 0 -6 7 -9 15
-7 55 11 111 13 143 4 20 -6 37 -7 37 -2 0 16 -147 32 -157 17z"/>
<path d="M3060 3562 c0 -6 9 -12 20 -15 11 -3 20 -3 20 -1 0 2 -9 8 -20 14
-11 6 -20 7 -20 2z"/>
<path d="M3176 3476 c3 -9 11 -16 16 -16 13 0 5 23 -10 28 -7 2 -10 -2 -6 -12z"/>
<path d="M2755 3429 c-4 -6 -5 -12 -2 -15 2 -3 7 2 10 11 7 17 1 20 -8 4z"/>
<path d="M1793 3400 c-13 -5 -29 -24 -37 -42 -14 -31 -15 -32 -9 -4 6 28 6 28
-19 12 -13 -9 -27 -13 -30 -10 -4 3 -16 1 -27 -6 -27 -14 -113 -20 -126 -9
-14 11 -39 -6 -31 -20 4 -6 15 -11 25 -11 25 0 33 -11 20 -26 -13 -16 -4 -34
17 -34 8 0 26 8 40 17 25 16 27 16 36 0 13 -24 22 -21 57 14 21 20 31 26 31
15 0 -8 -5 -18 -10 -21 -6 -4 -7 -12 -3 -18 4 -7 8 -34 9 -62 1 -27 7 -51 13
-53 6 -2 9 -8 5 -13 -3 -5 4 -9 14 -9 38 0 42 47 8 113 l-23 47 29 0 c25 0 28
3 23 20 -7 23 13 28 33 8 6 -6 15 -8 19 -4 4 4 1 11 -6 15 -7 5 -10 14 -7 20
4 6 2 11 -3 11 -6 0 -11 -5 -11 -11 0 -6 -7 -3 -16 5 -8 9 -20 14 -25 11 -18
-12 -8 5 18 30 29 26 24 30 -14 15z m-3 -70 c0 -5 -2 -10 -4 -10 -3 0 -8 5
-11 10 -3 6 -1 10 4 10 6 0 11 -4 11 -10z m-140 -30 c-8 -5 -19 -10 -25 -10
-5 0 -3 5 5 10 8 5 20 10 25 10 6 0 3 -5 -5 -10z m140 -152 c0 -4 -4 -8 -10
-8 -5 0 -10 4 -10 9 0 5 -3 18 -6 28 -5 16 -4 16 10 -1 9 -11 16 -23 16 -28z"/>
<path d="M3048 3353 c7 -3 16 -2 19 1 4 3 -2 6 -13 5 -11 0 -14 -3 -6 -6z"/>
<path d="M1878 3293 c7 -3 16 -2 19 1 4 3 -2 6 -13 5 -11 0 -14 -3 -6 -6z"/>
<path d="M1701 3231 c-7 -5 -11 -15 -9 -22 3 -10 8 -7 17 9 13 24 12 26 -8 13z"/>
<path d="M1595 3215 c-19 -15 -18 -15 15 -13 19 2 34 8 33 13 -3 17 -27 17
-48 0z"/>
<path d="M1661 3197 c-6 -8 -8 -16 -6 -19 3 -3 -5 -3 -19 -1 -28 6 -82 -39
-70 -58 4 -8 9 -8 17 0 6 6 21 11 32 11 25 0 49 24 59 58 8 25 4 28 -13 9z"/>
<path d="M1538 3153 c7 -3 16 -2 19 1 4 3 -2 6 -13 5 -11 0 -14 -3 -6 -6z"/>
<path d="M1621 3091 c-8 -5 -21 -7 -30 -4 -12 4 -13 3 -3 -5 9 -6 11 -18 6
-35 -4 -17 -2 -27 5 -27 6 0 8 6 5 14 -3 8 -1 17 5 21 6 3 11 -1 11 -10 0 -9
5 -13 10 -10 7 4 12 68 5 65 0 0 -6 -4 -14 -9z"/>
<path d="M1820 3050 c0 -5 5 -10 11 -10 5 0 7 5 4 10 -3 6 -8 10 -11 10 -2 0
-4 -4 -4 -10z"/>
<path d="M1626 3005 c4 -8 11 -15 16 -15 6 0 5 6 -2 15 -7 8 -14 15 -16 15 -2
0 -1 -7 2 -15z"/>
<path d="M1350 2319 c-119 -74 -159 -131 -146 -205 31 -161 516 -289 1181
-310 131 -4 222 -2 335 10 227 24 432 55 538 82 117 29 267 100 315 148 33 32
37 42 37 86 0 41 -5 55 -31 85 -17 19 -45 45 -63 57 -23 16 -17 7 22 -35 45
-48 52 -61 52 -96 0 -33 -7 -47 -35 -75 -149 -149 -560 -240 -1085 -239 -414
0 -825 59 -1055 152 -70 28 -102 47 -143 88 -40 39 -51 57 -48 75 3 13 5 30 5
39 2 29 72 99 125 124 64 30 64 30 69 3 2 -13 4 -6 4 15 0 20 -3 37 -6 36 -3
0 -35 -18 -71 -40z"/>
<path d="M3411 2326 c2 -2 15 -9 29 -15 24 -11 24 -11 6 3 -16 13 -49 24 -35
12z"/>
<path d="M1390 2249 c0 -5 -5 -7 -11 -3 -8 5 -8 1 0 -13 6 -11 8 -23 6 -27 -3
-3 -2 -4 2 -1 7 6 14 55 7 55 -2 0 -4 -5 -4 -11z"/>
<path d="M1405 2239 c-4 -6 0 -18 9 -27 15 -15 16 -15 16 5 0 25 -15 38 -25
22z"/>
<path d="M2370 1540 c0 -5 5 -10 11 -10 5 0 7 5 4 10 -3 6 -8 10 -11 10 -2 0
-4 -4 -4 -10z"/>
<path d="M2900 1192 c0 -35 -57 -86 -125 -111 -116 -44 -197 -55 -405 -55
-168 1 -208 4 -285 23 -123 30 -194 67 -221 115 -20 35 -22 36 -27 14 -23 -87
179 -168 464 -185 136 -8 341 19 482 64 96 31 154 95 128 140 -9 16 -10 16
-11 -5z"/>
</g>
</svg>
